<svg width="1200" height="800" viewBox="0 0 1200 800" fill="none" xmlns="http://www.w3.org/2000/svg">
  <defs>
    <linearGradient id="bg" x1="0" y1="0" x2="1" y2="1">
      <stop offset="0%" stop-color="#0f172a" />
      <stop offset="55%" stop-color="#1e293b" />
      <stop offset="100%" stop-color="#0ea5e9" />
    </linearGradient>
    <linearGradient id="road" x1="0" y1="0" x2="0" y2="1">
      <stop offset="0%" stop-color="#94a3b8" stop-opacity="0.2" />
      <stop offset="100%" stop-color="#94a3b8" stop-opacity="0.6" />
    </linearGradient>
    <linearGradient id="car" x1="0" y1="0" x2="1" y2="1">
      <stop offset="0%" stop-color="#22c55e" />
      <stop offset="100%" stop-color="#14b8a6" />
    </linearGradient>
  </defs>
  <rect width="1200" height="800" rx="64" fill="url(#bg)" />
  <circle cx="220" cy="180" r="120" fill="#1d4ed8" fill-opacity="0.5" />
  <circle cx="980" cy="160" r="140" fill="#0ea5e9" fill-opacity="0.4" />
  <rect x="80" y="520" width="1040" height="200" rx="100" fill="url(#road)" />
  <rect x="210" y="470" width="620" height="160" rx="80" fill="url(#car)" />
  <rect x="300" y="420" width="320" height="110" rx="55" fill="#e2e8f0" />
  <rect x="380" y="450" width="160" height="70" rx="35" fill="#f8fafc" />
  <circle cx="340" cy="650" r="70" fill="#0f172a" />
  <circle cx="700" cy="650" r="70" fill="#0f172a" />
  <circle cx="340" cy="650" r="40" fill="#94a3b8" />
  <circle cx="700" cy="650" r="40" fill="#94a3b8" />
  <rect x="840" y="520" width="140" height="60" rx="30" fill="#38bdf8" />
  <rect x="860" y="540" width="100" height="20" rx="10" fill="#0f172a" />
  <path d="M170 340C260 250 450 230 610 270C720 300 820 360 870 420" stroke="#f8fafc" stroke-opacity="0.35" stroke-width="24" stroke-linecap="round" />
  <path d="M160 300C250 210 460 190 620 230C750 260 860 330 940 410" stroke="#38bdf8" stroke-opacity="0.55" stroke-width="16" stroke-linecap="round" />
</svg>
