<svg width="1200" height="800" viewBox="0 0 1200 800" fill="none" xmlns="http://www.w3.org/2000/svg">
  <defs>
    <linearGradient id="bg" x1="0" y1="0" x2="1" y2="1">
      <stop offset="0%" stop-color="#0ea5e9" />
      <stop offset="100%" stop-color="#22c55e" />
    </linearGradient>
    <linearGradient id="panel" x1="0" y1="0" x2="0" y2="1">
      <stop offset="0%" stop-color="#f8fafc" />
      <stop offset="100%" stop-color="#e2e8f0" />
    </linearGradient>
  </defs>
  <rect width="1200" height="800" rx="64" fill="url(#bg)" />
  <rect x="140" y="120" width="920" height="560" rx="48" fill="url(#panel)" />
  <rect x="220" y="200" width="360" height="280" rx="36" fill="#ffffff" />
  <rect x="640" y="200" width="320" height="160" rx="32" fill="#ffffff" />
  <rect x="640" y="380" width="320" height="240" rx="32" fill="#ffffff" />
  <circle cx="320" cy="260" r="48" fill="#0ea5e9" />
  <circle cx="420" cy="320" r="64" fill="#22c55e" />
  <rect x="280" y="380" width="220" height="40" rx="20" fill="#0f172a" />
  <rect x="700" y="250" width="200" height="20" rx="10" fill="#cbd5f5" />
  <rect x="700" y="290" width="160" height="20" rx="10" fill="#cbd5f5" />
  <rect x="700" y="430" width="220" height="26" rx="13" fill="#1e293b" />
  <rect x="700" y="470" width="180" height="26" rx="13" fill="#64748b" />
  <rect x="700" y="510" width="140" height="26" rx="13" fill="#94a3b8" />
  <path d="M260 520H520" stroke="#0f172a" stroke-width="18" stroke-linecap="round" />
  <path d="M260 560H460" stroke="#0ea5e9" stroke-width="14" stroke-linecap="round" />
  <path d="M260 600H480" stroke="#22c55e" stroke-width="14" stroke-linecap="round" />
</svg>
